<svg height="256" width="256" xmlns="http://www.w3.org/2000/svg"><path d="m25 184c-.47 2.68-.227 4.354 1 6s4.563 2.464 8 2 5.078-.958 6-4 40.167-102.359 40.167-102.359c1.012-2.563 2.655-2.563 3.676.018l15.08 38.128c1.218 3.077 4.9 5.591 8.21 5.616l80.867.597s26.23 53.28 27.993 56.358c1.764 3.079 4.94 5.225 7.237 5.24 2.297.016 5.15-2.404 6.552-3.598s2.88-3.828 1.661-6.824c-1.218-2.995-29.623-58.905-31.318-61.992-1.695-3.088-3.859-5.184-8.125-5.184s-76.877-.318-76.877-.318c-2.207-.01-4.608-1.691-5.37-3.777 0 0-12.403-33.889-13.717-37.905s-6.912-7.827-14.036-7.827-11.914 2.522-14 7.827-42.53 109.32-43 112z" fill-rule="evenodd" stroke="#979797"/></svg>