<?xml version="1.0" encoding="UTF-8"?><svg id="Warstwa_1" xmlns="http://www.w3.org/2000/svg" width="594.1214" height="594.1185" xmlns:xlink="http://www.w3.org/1999/xlink" viewBox="0 0 594.1214 594.1185"><defs><style>.cls-1{fill:url(#linear-gradient);}.cls-1,.cls-2{fill-rule:evenodd;stroke-width:0px;}.cls-2{fill:url(#linear-gradient-2);}</style><linearGradient id="linear-gradient" x1="148.495" y1="39.7373" x2="445.6249" y2="554.3815" gradientUnits="userSpaceOnUse"><stop offset=".1117" stop-color="#ff2a8f"/><stop offset=".6022" stop-color="#c88cff"/></linearGradient><linearGradient id="linear-gradient-2" x1="192.1032" y1="189.6945" x2="341.7832" y2="448.9478" xlink:href="#linear-gradient"/></defs><path class="cls-1" d="m120.8657,536.2557C-11.1643,438.9957-39.3943,252.9057,57.8657,120.8657,155.1257-11.1643,341.2157-39.3943,473.2557,57.8657c132.03,97.26,160.26,283.35,63,415.39-97.26,132.02-283.34,160.26-415.39,63Zm400.29-74.12c91.12-123.7,64.68-298.05-59.02-389.17S164.0857,8.2757,72.9657,131.9857s-64.67,298.05,59.02,389.17c123.7,91.12,298.06,64.6801,389.17-59.02Z"/><polygon class="cls-2" points="120.0457 372.1357 237.2557 163.6257 297.6657 277.5357 418.1857 277.5357 474.8257 372.1357 429.4557 372.1357 396.1657 316.6057 273.2457 316.6057 237.2657 243.2657 164.9057 372.1357 120.0457 372.1357"/></svg>